<svg width="24" height="24" viewBox="0 0 24 24" fill="none" xmlns="http://www.w3.org/2000/svg">
<g clip-path="url(#clip0_403_3033)">
<path d="M5.1 -0.000407124H18.9C20.239 -0.0124059 21.528 0.50734 22.4842 1.44475C23.4403 2.38216 23.9855 3.66065 24 4.99959V7.99959C24 8.26481 23.8946 8.51916 23.7071 8.7067C23.5196 8.89424 23.2652 8.99959 23 8.99959C22.7348 8.99959 22.4804 8.89424 22.2929 8.7067C22.1054 8.51916 22 8.26481 22 7.99959V4.99959C21.9858 4.19099 21.6514 3.42104 21.0703 2.85863C20.4891 2.29622 19.7086 1.98729 18.9 1.99959H5.1C4.29137 1.98729 3.51087 2.29622 2.92971 2.85863C2.34856 3.42104 2.01421 4.19099 2 4.99959V18.9996C2.01421 19.8082 2.34856 20.5782 2.92971 21.1406C3.51087 21.703 4.29137 22.0119 5.1 21.9996H18.9C19.7086 22.0119 20.4891 21.703 21.0703 21.1406C21.6514 20.5782 21.9858 19.8082 22 18.9996V15.9996C22 15.7344 22.1054 15.48 22.2929 15.2925C22.4804 15.1049 22.7348 14.9996 23 14.9996C23.2652 14.9996 23.5196 15.1049 23.7071 15.2925C23.8946 15.48 24 15.7344 24 15.9996V18.9996C23.9855 20.3385 23.4403 21.617 22.4842 22.5544C21.528 23.4918 20.239 24.0116 18.9 23.9996H5.1C3.76103 24.0116 2.472 23.4918 1.51584 22.5544C0.559683 21.617 0.0145149 20.3385 0 18.9996V4.99959C0.0145149 3.66065 0.559683 2.38216 1.51584 1.44475C2.472 0.50734 3.76103 -0.0124059 5.1 -0.000407124Z" fill="#374957"/>
<path d="M21 11.9992C21 12.2644 20.8946 12.5188 20.7071 12.7063C20.5196 12.8938 20.2652 12.9992 20 12.9992L6.812 12.9692L11.135 17.2922C11.2305 17.3844 11.3067 17.4948 11.3591 17.6168C11.4115 17.7388 11.4391 17.87 11.4403 18.0028C11.4414 18.1356 11.4161 18.2672 11.3658 18.3901C11.3155 18.513 11.2413 18.6247 11.1474 18.7186C11.0535 18.8125 10.9419 18.8867 10.819 18.937C10.6961 18.9873 10.5644 19.0126 10.4316 19.0114C10.2988 19.0103 10.1676 18.9827 10.0456 18.9303C9.92359 18.8779 9.81325 18.8017 9.721 18.7062L5.135 14.1202C4.57259 13.5576 4.25664 12.7947 4.25664 11.9992C4.25664 11.2037 4.57259 10.4408 5.135 9.87819L9.719 5.29219C9.9076 5.11003 10.1602 5.00923 10.4224 5.01151C10.6846 5.01379 10.9354 5.11896 11.1208 5.30437C11.3062 5.48978 11.4114 5.74059 11.4137 6.00279C11.416 6.26498 11.3152 6.51758 11.133 6.70619L6.871 10.9692L20 10.9992C20.2652 10.9992 20.5196 11.1045 20.7071 11.2921C20.8946 11.4796 21 11.734 21 11.9992Z" fill="#374957"/>
</g>
<defs>
<clipPath id="clip0_403_3033">
<rect width="24" height="24" fill="white" transform="matrix(-1 0 0 1 24 0)"/>
</clipPath>
</defs>
</svg>
